<svg width="321" height="231" viewBox="0 0 321 231" fill="none" xmlns="http://www.w3.org/2000/svg">
<path d="M271.664 181.093C268.63 175.063 262.604 172.05 256.562 172.05C254.337 157.416 241.459 153.959 229.376 159.99C229.376 153.959 223.334 150.947 217.292 153.959C217.292 144.916 211.038 138.598 202.19 138.886C202.19 135.858 202.19 132.856 196.148 129.843C191.865 125.301 184.064 126.815 181.046 129.843C176.177 127.411 171.308 128.899 169.604 132.73C166.844 130.206 162.592 130.263 159.902 132.861C159.876 126.835 153.855 123.808 147.813 126.835C141.771 120.805 126.669 123.808 126.669 135.878C117.816 135.591 111.567 141.909 111.567 150.952C105.525 147.924 99.4827 150.952 99.4827 156.982C87.399 150.952 74.5164 154.408 72.2968 169.043C66.2549 169.043 60.213 172.07 57.1946 178.086C53.1498 177.076 48.1343 181.113 45.1108 184.116H283.748C280.714 181.093 275.693 180.089 271.664 181.093Z" fill="#F4F6F8"/>
<path d="M221.332 184.056H246.156L283.747 184.363" stroke="#C6CBDB" stroke-width="2.772" stroke-linecap="round" stroke-linejoin="round"/>
<path d="M45.106 184.025H155.533H45.106Z" fill="#8E99A4"/>
<path d="M45.106 184.025H155.533" stroke="#C6CBDB" stroke-width="2.772" stroke-linecap="round" stroke-linejoin="round"/>
<path d="M174.539 224.733V199.325H190.718V224.733" fill="#E0E5EC"/>
<path d="M174.539 224.733V199.325H190.718V224.733" stroke="#C5D0D9" stroke-width="2.772" stroke-linecap="round" stroke-linejoin="round"/>
<path d="M166.449 200.415H117.912V169.128C117.912 124.72 166.449 124.72 166.449 169.128V200.415Z" fill="#D3D7E6" stroke="#C5D0D9" stroke-width="2.772" stroke-linecap="round" stroke-linejoin="round"/>
<path d="M174.539 192.437H109.822V156.532L174.539 156.104V192.437Z" fill="#F4F6F8" stroke="#C5D0D9" stroke-width="2.772" stroke-linecap="round" stroke-linejoin="round"/>
<path d="M126.527 172.681L114.393 184.792L126.527 172.681Z" fill="#F4F6F8"/>
<path d="M126.527 172.681L114.393 184.792" stroke="#C5D0D9" stroke-width="2.772" stroke-linecap="round" stroke-linejoin="round"/>
<path d="M158.885 172.681L171.02 184.792L158.885 172.681Z" fill="#F4F6F8"/>
<path d="M158.885 172.681L171.02 184.792" stroke="#C5D0D9" stroke-width="2.772" stroke-linecap="round" stroke-linejoin="round"/>
<path d="M109.822 156.104L140.866 178.968C142.256 180.02 144.178 180.02 145.568 178.968L174.539 156.104H109.822Z" fill="#F4F6F8" stroke="#C5D0D9" stroke-width="2.772" stroke-linecap="round" stroke-linejoin="round"/>
<g style="mix-blend-mode:multiply" opacity="0.25">
<path d="M138.136 136.342C148.784 138.542 158.36 149.498 158.36 169.224V200.511H166.449V169.224C166.449 144.542 151.458 133.587 138.136 136.342Z" fill="#F2F2F7"/>
</g>
<path d="M202.787 135.919H140.158C154.623 136.863 166.449 148.03 166.449 169.27V200.602H231.166V169.28C231.166 148.03 217.247 136.873 202.787 135.919Z" fill="#E8EAF1" stroke="#C5D0D9" stroke-width="2.772" stroke-linecap="round" stroke-linejoin="round"/>
<g style="mix-blend-mode:multiply" opacity="0.37">
<path d="M190.718 216.659L174.539 200.511H190.718V216.659Z" fill="#F4F5F8"/>
<path d="M190.718 216.659L174.539 200.511H190.718V216.659Z" stroke="#F4F5F8" stroke-width="2.772" stroke-linecap="round" stroke-linejoin="round"/>
</g>
<path d="M291.453 184.025H295.882H291.453Z" fill="#8E99A4"/>
<path d="M291.453 184.025H295.882" stroke="#C6CBDB" stroke-width="2.772" stroke-linecap="round" stroke-linejoin="round"/>
<path d="M41.0611 184.025H33.5024H41.0611Z" fill="#8E99A4"/>
<path d="M41.0611 184.025H33.5024" stroke="#C6CBDB" stroke-width="2.772" stroke-linecap="round" stroke-linejoin="round"/>
<path d="M28.9266 184.025H24.8818H28.9266Z" fill="#8E99A4"/>
<path d="M28.9266 184.025H24.8818" stroke="#C6CBDB" stroke-width="2.772" stroke-linecap="round" stroke-linejoin="round"/>
<g opacity="0.6">
<path d="M113.862 9.5293H125.996V37.7886H113.862V9.5293Z" fill="#DAE2EC"/>
<path d="M113.862 9.5293H125.996V13.5663H113.862V9.5293Z" fill="#E1E7ED"/>
<path d="M105.772 79.4001V47.2703L134.086 6.7334L166.368 46.7909V79.4001H105.772Z" fill="#F4F6F8"/>
<path d="M166.444 47.1038H223.071L190.713 6.7334H134.086L166.444 47.1038Z" fill="#DAE2EC"/>
<path d="M166.368 47.1035H223.076V79.3998H166.368V47.1035Z" fill="#E1E7ED"/>
<path d="M202.847 57.9736H214.981V78.1588H202.847V57.9736Z" fill="#DAE2EC"/>
<path d="M212.959 69.0752C213.517 69.0752 213.97 68.6233 213.97 68.0659C213.97 67.5085 213.517 67.0566 212.959 67.0566C212.4 67.0566 211.948 67.5085 211.948 68.0659C211.948 68.6233 212.4 69.0752 212.959 69.0752Z" fill="#D3D7E6"/>
</g>
<g opacity="0.26">
<path d="M112.855 88.7559V118.257V88.7559Z" fill="#8E99A4"/>
<path d="M112.855 88.7559V118.257" stroke="#D3D7E6" stroke-width="2.772" stroke-linecap="round" stroke-linejoin="round"/>
</g>
<g opacity="0.26">
<path d="M198.807 107.659V111.696V107.659Z" fill="#8E99A4"/>
<path d="M198.807 107.659V111.696" stroke="#D3D7E6" stroke-width="2.772" stroke-linecap="round" stroke-linejoin="round"/>
<path d="M198.807 91.5107V103.622V91.5107Z" fill="#8E99A4"/>
<path d="M198.807 91.5107V103.622" stroke="#D3D7E6" stroke-width="2.772" stroke-linecap="round" stroke-linejoin="round"/>
</g>
<g opacity="0.26">
<path d="M158.359 111.696V115.733V111.696Z" fill="#8E99A4"/>
<path d="M158.359 111.696V115.733" stroke="#D3D7E6" stroke-width="2.772" stroke-linecap="round" stroke-linejoin="round"/>
<path d="M158.359 99.585V107.659V99.585Z" fill="#8E99A4"/>
<path d="M158.359 99.585V107.659" stroke="#D3D7E6" stroke-width="2.772" stroke-linecap="round" stroke-linejoin="round"/>
</g>
<g style="mix-blend-mode:multiply" opacity="0.76">
<path d="M230.493 200.511C230.736 190.57 239.255 143.992 207.999 135.964C207.832 135.883 207.741 135.853 207.741 135.853H190.718C215.462 135.853 231.166 164.182 223.076 200.516" fill="#F9F9FC"/>
</g>
<path d="M201.993 162.704C204.272 164.238 205.255 167.095 204.401 169.703C203.547 172.311 201.064 174.037 198.317 173.933C195.57 173.828 193.226 171.917 192.574 169.252C191.923 166.587 193.121 163.813 195.511 162.457" stroke="#C5D0D9" stroke-width="2.772" stroke-linecap="round" stroke-linejoin="round"/>
<path d="M198.554 168.805V120.083" stroke="#C5D0D9" stroke-width="2.772" stroke-linecap="round" stroke-linejoin="round"/>
<path d="M198.554 120.083H222.757V130.958H198.554V120.083Z" fill="#E1E7ED" stroke="#CFD4DC" stroke-width="2.772" stroke-linecap="round" stroke-linejoin="round"/>
<path d="M106.101 123.969C106.101 135.207 85.7153 176.289 85.7153 176.289C85.7153 176.289 65.3296 135.207 65.3296 123.969C65.3296 112.732 74.4566 103.622 85.7153 103.622C96.974 103.622 106.101 112.732 106.101 123.969Z" fill="#FDD760" stroke="#FFC729" stroke-width="4.851"/>
<g style="mix-blend-mode:screen" opacity="0.28">
<path d="M90.8571 105.439C89.6538 105.207 87.2219 104.682 85.9478 104.682C80.789 104.658 75.8348 106.694 72.1889 110.336C68.5429 113.979 66.5082 118.926 66.5379 124.075C66.5379 134.889 85.7152 173.962 85.7152 173.962C85.7152 173.962 87.3028 170.753 89.4971 166.075C83.8344 153.994 73.9753 131.866 73.9753 124.075C73.9702 114.532 81.8575 107.155 90.8571 105.439Z" fill="#FCD66D"/>
</g>
<path d="M73.4189 121.789L79.4861 127.845" stroke="#FFC729" stroke-width="2.772" stroke-linecap="round" stroke-linejoin="round"/>
<path d="M79.4861 121.789L73.4189 127.845" stroke="#FFC729" stroke-width="2.772" stroke-linecap="round" stroke-linejoin="round"/>
<path d="M93.6431 121.789L99.7102 127.845" stroke="#FCC332" stroke-width="2.772" stroke-linecap="round" stroke-linejoin="round"/>
<path d="M99.7102 121.789L93.6431 127.845" stroke="#FCC332" stroke-width="2.772" stroke-linecap="round" stroke-linejoin="round"/>
<path d="M85.5532 135.919V139.956" stroke="#FCC332" stroke-width="4.851" stroke-linecap="round" stroke-linejoin="round"/>
<path d="M240.858 105.54C240.858 105.495 240.858 105.444 240.858 105.399C240.916 101.275 244.039 97.8372 248.145 97.3761C252.252 96.9149 256.062 99.5739 257.037 103.582C258.698 102.641 260.736 102.655 262.385 103.616C264.034 104.578 265.046 106.343 265.04 108.25C265.04 108.371 265.04 108.492 265.04 108.608C267.659 109.583 269.202 112.289 268.705 115.033C268.207 117.778 265.812 119.773 263.018 119.771H242.425C238.745 119.772 235.654 117.008 235.252 113.356C234.85 109.705 237.265 106.337 240.858 105.54Z" fill="#F4F6F8"/>
<path d="M38.619 145.91C38.619 145.865 38.619 145.814 38.619 145.769C38.6776 141.645 41.7999 138.207 45.9067 137.746C50.0134 137.285 53.8229 139.944 54.7981 143.952C56.4596 143.012 58.497 143.025 60.1463 143.987C61.7955 144.948 62.8071 146.714 62.8017 148.62C62.8017 148.741 62.8017 148.862 62.8017 148.978C65.4198 149.953 66.963 152.659 66.4658 155.403C65.9685 158.148 63.5736 160.143 60.7793 160.141H40.1864C36.5061 160.142 33.415 157.378 33.0129 153.727C32.6108 150.075 35.0265 146.707 38.619 145.91Z" fill="#F4F6F8"/>
<path d="M83.8818 201.733C93.823 201.733 101.882 199.719 101.882 197.233C101.882 194.748 93.823 192.733 83.8818 192.733C73.9407 192.733 65.8818 194.748 65.8818 197.233C65.8818 199.719 73.9407 201.733 83.8818 201.733Z" fill="#F9F9FC"/>
</svg>
